<?xml version="1.0" encoding="UTF-8" standalone="no"?>
<!DOCTYPE svg PUBLIC "-//W3C//DTD SVG 1.1//EN" "http://www.w3.org/Graphics/SVG/1.1/DTD/svg11.dtd">
<svg width="100%" height="100%" viewBox="0 0 551 251" version="1.1" xmlns="http://www.w3.org/2000/svg" xmlns:xlink="http://www.w3.org/1999/xlink" xml:space="preserve" xmlns:serif="http://www.serif.com/" style="fill-rule:evenodd;clip-rule:evenodd;stroke-linejoin:round;stroke-miterlimit:2;">
    <g transform="matrix(1,0,0,1,-66,-143)">
        <g transform="matrix(0.634313,0,0,0.634313,64.9996,80.7474)">
            <circle cx="388.427" cy="151.281" r="54.879"/>
            <circle cx="97.565" cy="293.121" r="27.444"/>
            <path d="M49.6,474.847C86.396,474.847 142.232,465.323 196.107,452.94C221.104,476.798 254.888,491.534 292.172,491.534C360.993,491.534 418.014,441.58 429.307,375.98C525.64,336.382 599.74,294.9 586.371,252.108C586.285,251.821 586.18,251.534 586.064,251.257C581.56,240.365 567.743,235.507 541.264,235.498C494.436,235.498 421.388,250.674 418.299,251.314C413.26,252.366 409.818,257.033 410.286,262.158C410.754,267.283 414.99,271.242 420.136,271.366C452.514,272.131 480.465,279.14 483.822,284.821C480.571,292.232 458.204,305.811 427.776,320.776C413.5,259.012 358.266,212.911 292.161,212.911C215.222,212.911 152.855,275.278 152.855,352.217C152.855,373.159 157.607,392.944 165.879,410.759C150.531,413.647 136.312,415.483 124.798,415.483C113.992,415.483 108.446,413.867 105.721,412.547C106.438,409.248 111.21,397.812 142.173,376.315C144.965,374.508 146.82,371.362 146.82,367.795C146.82,362.277 142.431,357.649 136.951,357.649L136.674,357.649C136.34,357.649 136.014,357.678 135.68,357.716C135.125,357.774 134.58,357.878 134.045,358.022C122.484,360.853 30.512,384.482 6.204,424.883C0.266,434.751 -1.417,444.945 1.184,455.187C5.679,472.81 30.972,474.847 49.6,474.847Z" style="fill-rule:nonzero;"/>
        </g>
        <g transform="matrix(0.84377,-0.00110647,0.00110647,0.84377,238.155,238.985)">
            <text x="120px" y="156px" style="font-family:'Goldman-Regular', 'Goldman';font-size:97.723px;">LabeX</text>
        </g>
    </g>
</svg>
